<svg width="363" height="100" viewBox="0 0 363 100" fill="none" xmlns="http://www.w3.org/2000/svg">
<g clip-path="url(#clip0_5204_35)">
<path d="M90.343 14.2078C90.343 17.813 89.0196 21.829 86.3575 26.2404C78.7364 39.1096 67.3275 48.5713 52.1461 54.6256C66.5365 62.4597 64.8632 82.7523 64.5742 84.7907L43.4145 86.5248C43.4145 81.1855 43.6884 65.9889 30.9865 63.053L20.3078 89.0956L0 91.347C0 91.347 28.9329 28.1875 33.7246 18.3759C31.1386 18.6193 25.6015 19.3799 23.0763 19.9731L30.1955 2.63164C38.2882 0.867074 48.2519 0 60.1019 0C80.2576 0 90.3278 4.74609 90.3278 14.2078H90.343ZM67.3732 23.1524C67.3732 19.3494 63.8136 17.4632 56.6792 17.4632C55.9643 17.4632 51.7506 17.7826 51.7506 17.7826L40.0527 42.8669C45.3921 42.2128 50.5489 40.5091 55.5079 37.7253C61.3645 34.6069 65.1066 30.8496 66.7038 26.4229C67.1298 25.3125 67.3579 24.2172 67.3579 23.1372L67.3732 23.1524Z" fill="white"/>
<path d="M355.516 21.3272H336.471C331.101 32.7817 313.212 79.1169 307.705 90.2976C307.705 90.2976 302.533 89.3393 298.35 88.9438C294.167 88.5483 290.151 88.3657 290.151 88.3657L318.338 21.3272H298.943L305.773 4.80713L362.985 5.05052L355.501 21.3272H355.516Z" fill="white"/>
<path d="M165.748 49.9101C172.609 45.4379 175.682 40.494 178.131 34.5157L178.161 34.4397C179.378 30.6976 179.059 27.3662 177.203 24.8106C174.556 21.1597 169.064 21.175 161.352 21.175L92.351 21.1445L86.8595 35.2611L91.134 35.4437L72.3018 84.365C95.5607 82.9198 108.962 82.8438 108.962 82.8438L116.173 66.7192C116.173 66.7192 99.9417 67.7384 94.6936 68.21C95.5607 65.7457 97.2796 61.3342 98.1467 59.4023C101.478 58.9916 111.077 58.6722 111.077 58.6722L118.044 43.5668L104.11 43.5972C104.201 43.3234 107.304 34.7896 107.304 34.7896L136.085 34.6831C130.807 46.3201 114.18 82.357 114.18 82.357C120.356 83.1328 141.394 85.445 154.856 78.265C161.55 74.7055 166.098 69.9594 168.395 64.1941C169.293 61.9579 169.749 59.8891 169.749 58.0637C169.749 54.8692 168.41 52.1311 165.779 49.8949L165.748 49.9101ZM162.265 36.2803C162.265 36.5846 162.204 36.8584 162.052 37.2082C160.485 41.4828 155.161 44.1601 146.231 45.164L151.662 33.9681C152.59 33.8921 154.02 33.7704 154.628 33.7704C157.488 33.7704 162.265 34.0898 162.265 36.2803ZM147.098 67.6319C143.843 68.9858 140.512 69.6703 137.196 69.6703C136.907 69.6703 136.465 69.6703 135.887 69.6399C135.629 69.6399 135.355 69.6247 135.035 69.6095L140.086 58.1093C142.322 57.8811 143.904 57.7595 144.801 57.7595C150.186 57.7595 152.925 58.9916 152.925 61.4103C152.925 63.829 151.023 65.9739 147.114 67.6319H147.098Z" fill="white"/>
<path d="M235.951 21.2053H219.385L205.908 53.9411C204.478 57.4703 202.439 60.5583 199.884 63.0986C196.902 66.0041 193.753 67.4796 190.513 67.4796C188.825 67.4796 186.893 66.9624 186.893 62.9161C186.893 60.2084 188.125 55.5992 190.529 49.2255L191.198 47.5826C193.951 40.8894 202.957 21.1901 202.957 21.1901H186.619C186.619 21.1901 182.436 30.1042 181.949 31.2299C174.358 47.902 170.51 60.4061 170.51 68.4228C170.51 77.3673 174.845 81.8092 184.55 82.8284C185.448 82.9196 186.345 82.9653 187.228 82.9653C205.923 82.9653 216.434 68.2707 222.458 53.8651C225.561 46.4569 235.951 21.1597 235.951 21.1597V21.2053Z" fill="white"/>
<path d="M244.028 70.3241C247.04 62.2162 255.878 39.5354 258.388 33.9526H267.089L272.703 21.3572L239.982 21.2051L234.019 34.5307C234.019 34.5307 243.45 34.2416 243.754 34.2264L228.406 69.1528L219.142 69.2441L213.255 82.5545C213.255 82.5545 248.622 84.5624 248.759 84.5776L253.201 71.0695L244.028 70.2937V70.3241Z" fill="white"/>
<path d="M295.095 21.1748L277.631 21.0835L253.384 84.9885C253.566 84.9885 269.022 85.8556 284.842 87.6962L290.196 74.7357C284.599 73.0016 276.643 72.7125 273.661 72.4387C274.954 69.5028 295.11 21.1748 295.11 21.1748H295.095Z" fill="white"/>
<path d="M312.406 86.9354V86.1596L316.026 86.0684V86.8442L314.688 86.8746L314.779 90.5711L313.851 90.6015L313.76 86.905L312.406 86.9354Z" fill="white"/>
<path d="M316.62 86.0533L317.776 86.0229L319.069 89.0044H319.114L320.255 85.9621L321.411 85.9316L321.518 90.4039L320.605 90.4343L320.529 87.5289H320.499L319.419 90.4496H318.795L317.578 87.5897H317.548L317.624 90.5104L316.711 90.5408L316.604 86.0685L316.62 86.0533Z" fill="white"/>
</g>
<defs>
<clipPath id="clip0_5204_35">
<rect width="363" height="142.809" fill="white"/>
</clipPath>
</defs>
</svg>